<?xml version="1.0" encoding="utf-8"?>
<!-- Generator: Adobe Illustrator 24.2.0, SVG Export Plug-In . SVG Version: 6.00 Build 0)  -->
<svg version="1.1" id="Layer_1" xmlns="http://www.w3.org/2000/svg" xmlns:xlink="http://www.w3.org/1999/xlink" x="0px" y="0px"
	 viewBox="0 0 238 217" style="enable-background:new 0 0 238 217;" xml:space="preserve">
<style type="text/css">
	.st0{fill-rule:evenodd;clip-rule:evenodd;fill:#99C8CD;}
	.st1{fill:#EFDFEC;}
	.st2{fill:#DABCD1;}
	.st3{fill:#B0BEDD;}
	.st4{fill:none;stroke:#3A5DAB;stroke-width:5;stroke-linecap:round;stroke-linejoin:round;stroke-miterlimit:10;}
	.st5{fill:none;stroke:#852065;stroke-width:5;stroke-linecap:round;stroke-linejoin:round;stroke-miterlimit:10;}
	
		.st6{fill-rule:evenodd;clip-rule:evenodd;fill:none;stroke:#007482;stroke-width:5;stroke-linecap:round;stroke-linejoin:round;stroke-miterlimit:10;}
	
		.st7{fill-rule:evenodd;clip-rule:evenodd;fill:#99C8CD;stroke:#007482;stroke-width:5;stroke-linecap:round;stroke-linejoin:round;stroke-miterlimit:10;}
	.st8{fill:#007482;}
	.st9{fill:#016870;}
	.st10{fill:#3A5DAB;}
	.st11{fill:#852065;}
</style>
<g>
	<path class="st0" d="M169.7,28.3C182.3,41.7,190,59.8,190,79.6c0,41.5-33.8,75.2-75.3,75.2c-16.9,0-32.6-5.6-45.2-15
		c13.8,14.8,33.4,24,55.2,24c41.5,0,75.3-33.7,75.3-75.2C200,63.9,188.1,42,169.7,28.3z"/>
	<g>
		<path class="st8" d="M124.7,10.7c-42.9,0-77.8,34.9-77.8,77.8c0,42.9,34.9,77.7,77.8,77.7c42.9,0,77.8-34.9,77.8-77.7
			C202.5,45.7,167.6,10.7,124.7,10.7z M168.6,88.1c0.7,1.5,5.5,10.6,3.7,10.1c-1.8-0.5-2.5-2.4-4.4-5.3c-1.8-2.9-2.8-5.3-3-7.3
			C164.5,82.2,167.9,86.6,168.6,88.1z M51.9,92c0.9,1.4,1.9,3,2.6,4.7c2.2,5,12.9,5.6,17.3,9.8s2.8,7,3.1,12.3s8.1,8.7,11.5,10.9
			c3.4,2.2,3.6,6.7,3.6,6.7c1.3,8.9,4.9,15.7,7.6,19.7C71.8,145.7,53.3,121.1,51.9,92z M124.7,161.3c-5.8,0-11.5-0.7-16.9-2
			c-0.3-4.7-1-9.3,3-21c5-14.8,4.2-20.7,3.1-24s-11.7-7.8-23.8-12.6s-12,4.8-15.4,1.7c-3.4-3.1,0.3-5.9-7.3-5.3s-4.2-9.2-2.5-11.2
			c1.7-2,5.6-3.1,7.8,2.1c2.1,5,3,0.8,2.7-2.3s0.2-1,6.6-10c6.4-8.9,11.7-6,16.4-8.8s-0.3-13.7-1.4-17s-9.2-3.9-8.6,1.7
			c0.6,5.6-0.6,6.1-3.9,7.3s-4.8-2.5-5.9-5.6c-1.1-3.1,2-6.1,9.2-7.3c7.3-1.1,10.6-4.2,10.6-8.9s-4.2-5.3-7.5-3.9
			c-3.4,1.4-8.1,8.9-9.2,6.1c-1.1-2.8,3.9-4.5,6.7-8.4c1.5-2.2,0.6-4.5-0.5-6.1c6.9-4,14.5-7,22.5-8.6c-2.1,2-4.3,5.4-3.6,10.7
			c1.2,9.3,2.2,9.9,1.1,15.9s-0.6,11.2,3,11.2s0.6-5.2,5.1-8.6c4.5-3.4,10.3-2.9,10.9-9.6c0.6-6.5,9.5-4,6.9-20.4
			c11.5,1.4,22.1,5.6,31.3,11.7c-0.6,1.7-1.1,4-0.4,5.7c1.2,3,1.9,6.7-0.3,7.2c-2.2,0.5-6.9-4.6-10.5-3.9
			c-3.5,0.7-9.8,9.1-10.6,12.1c-0.7,3-0.2,5.6,1.5,6.2c1.7,0.6,4,2.3,5.2,0c1.2-2.3-0.4-5.7,0.8-7.3c1.2-1.6,4.3,1.8,3.7,3.5
			c-0.6,1.7,0.1,6.3-4.5,7.4c-4.6,1.1-10.7,3.4-12.1,6.7c-1.5,3.3-0.2,5.7-2.7,6.3s-3.5,4.6-1.5,6.9c1.9,2.3,6.5-1.3,7-2.2
			c0.5-0.8,1.7-5.2,4.6-3.8c2.9,1.5,4.6,2.4,4,3.5c-0.5,1.1,1.1,3.3,2.3,1.6c1.2-1.7,1.9-3.4,2.9-1.9c1,1.5,1.7,1.6,2.9,1.2
			c1.2-0.4-1.6-2.8-1.1-3.6c0.5-0.8,4,1.8,4.2,3.3c0.2,1.5,2.3,1.8,3.5,1.3s1.6,2.8-2.5,3.5c-4.1,0.7-6.5-0.2-7.4,0
			c-0.8,0.2-1.1,1.8-1,2.4s-5.3-1.8-5.5-2.4c-0.1-0.6,1.1-6-4.1-4.6c-5.2,1.4-6.9,2.3-9.5,4c-2.5,1.7-7.9,9.3-7.9,13.5
			c0,4.1,4.4,12.4,12.2,11.9c7.9-0.5,8.2,2.8,8.2,5.5s2.9,5.2,2.4,9.1c-0.5,3.9,2.7,16.7,4.1,18.6c1.5,1.8,7.8-3.6,12.7-12.2
			c5-8.6,4.4-12.4,5.3-14.2c1-1.8,6.3-9.1,7.2-10.6c0.8-1.5,1-3.4-3.3-1.8c-4.2,1.6-3.2-1.5-1.2-2.2s10.1-3.9,11-6.3
			c1-2.4-8.4-5.5-9-7.6c-0.6-2.2,5.8,1.6,8.2,1.5c2.2-0.1,10.8,2.4,12.9,6.9C195,131.1,163.3,161.3,124.7,161.3z"/>
		<path class="st8" d="M166.1,165c-13.1,7.4-28,11.3-43.2,11.3c-48.4,0-87.7-39.3-87.7-87.6c0-25.6,11.2-49.9,30.7-66.6
			c1-0.9,1.2-2.5,0.3-3.5c-0.9-1-2.5-1.2-3.5-0.3C42,36,30.2,61.7,30.2,88.8c0,50.2,40.3,91.2,90.2,92.6v11.3c0,1.4,1.1,2.5,2.5,2.5
			s2.5-1.1,2.5-2.5v-11.3c15.1-0.4,30-4.5,43.1-11.9c1.2-0.7,1.6-2.2,0.9-3.4C168.8,164.8,167.3,164.3,166.1,165z"/>
	</g>
	<g>
		<path class="st0" d="M163.5,204.8H81.4v-8.1c0-2.3,1.9-4.2,4.2-4.2h73.8c2.3,0,4.2,1.9,4.2,4.2V204.8z"/>
		<path class="st8" d="M163.5,207.3H81.4c-1.4,0-2.5-1.1-2.5-2.5v-8.1c0-3.7,3-6.7,6.7-6.7h73.8c3.7,0,6.7,3,6.7,6.7v8.1
			C166,206.2,164.9,207.3,163.5,207.3z M83.9,202.3H161v-5.6c0-0.9-0.7-1.7-1.7-1.7H85.5c-0.9,0-1.7,0.7-1.7,1.7V202.3z"/>
	</g>
	<path class="st9" d="M107.9,161.9c0-2.5-0.4-4.7-0.4-7.5c-4.2-0.4-8.2-1.1-12.2-2.2c2.1,4,4.2,6.6,5,7.5
		C102.8,160.6,105.3,161.3,107.9,161.9z"/>
	<path class="st9" d="M197.7,94.2c1.1,5.2,1.1,7.4,1.1,7.4S206.1,57.7,172,30c-0.2-0.1-0.3-0.3-0.5-0.4c-0.2-0.2-0.5-0.4-0.7-0.5
		c-0.3-0.3-0.7-0.5-1-0.8C182.3,41.7,190,59.8,190,79.6c0,2.6-0.1,5.2-0.4,7.8C193.1,88.7,197.1,91,197.7,94.2z"/>
	<path class="st8" d="M124.7,166.3c-42.9,0-77.8-34.9-77.8-77.7c0-42.9,34.9-77.8,77.8-77.8c42.9,0,77.8,34.9,77.8,77.8
		C202.5,131.4,167.6,166.3,124.7,166.3z M124.7,15.7c-40.2,0-72.8,32.7-72.8,72.8c0,40.1,32.7,72.7,72.8,72.7
		c40.2,0,72.8-32.6,72.8-72.7C197.5,48.4,164.8,15.7,124.7,15.7z"/>
</g>
</svg>
