<?xml version="1.0" encoding="utf-8"?>
<!-- Generator: Adobe Illustrator 24.2.0, SVG Export Plug-In . SVG Version: 6.00 Build 0)  -->
<svg version="1.1" id="Layer_1" xmlns="http://www.w3.org/2000/svg" xmlns:xlink="http://www.w3.org/1999/xlink" x="0px" y="0px"
	 viewBox="0 0 238 217" style="enable-background:new 0 0 238 217;" xml:space="preserve">
<style type="text/css">
	.st0{fill-rule:evenodd;clip-rule:evenodd;fill:#99C8CD;}
	.st1{fill:#EFDFEC;}
	.st2{fill:#DABCD1;}
	.st3{fill:#B0BEDD;}
	.st4{fill:none;stroke:#3A5DAB;stroke-width:5;stroke-linecap:round;stroke-linejoin:round;stroke-miterlimit:10;}
	.st5{fill:none;stroke:#852065;stroke-width:5;stroke-linecap:round;stroke-linejoin:round;stroke-miterlimit:10;}
	
		.st6{fill-rule:evenodd;clip-rule:evenodd;fill:none;stroke:#007482;stroke-width:5;stroke-linecap:round;stroke-linejoin:round;stroke-miterlimit:10;}
	
		.st7{fill-rule:evenodd;clip-rule:evenodd;fill:#99C8CD;stroke:#007482;stroke-width:5;stroke-linecap:round;stroke-linejoin:round;stroke-miterlimit:10;}
	.st8{fill:#007482;}
	.st9{fill:#016870;}
	.st10{fill:#3A5DAB;}
	.st11{fill:#852065;}
</style>
<g>
	<path class="st1" d="M214.5,166.2v35h-196v-35C18.5,166.2,132.5,155.2,214.5,166.2z"/>
	<path class="st1" d="M188.5,54.4v25c0,0-34-12-72-11s-73,11-73,11v-25c0,0,21-11,73-11S188.5,54.4,188.5,54.4z"/>
	<path class="st2" d="M117.5,12.2c0,0-45-2-62,37c0,0,69-15,123,0C178.5,49.2,167.5,12.2,117.5,12.2z"/>
	<path class="st2" d="M14.5,164.2l22-19c0,0,73-18,161,0l21,19C218.5,164.2,112.5,153.2,14.5,164.2z"/>
	<path class="st11" d="M220.2,163.6l-1.2-1V115c0-1.4-1.1-2.5-2.5-2.5h-17.3l0-30.1c0-1-0.6-2-1.6-2.3c-2.2-0.9-4.4-1.7-6.6-2.4
		c0-0.1,0-0.1,0-0.2V53.2c0-1.1-0.7-2.1-1.8-2.4c-3-0.9-5.9-1.7-8.8-2.5c-1.4-3.3-5.2-10.7-12.7-18.1c-9-9-25.3-19.7-51.9-19.7
		c-26.5,0-42.9,10.9-51.9,20c-7.5,7.5-11.3,15-12.8,18.4c-3.2,0.8-6.2,1.6-8.9,2.3c-1.1,0.3-1.8,1.3-1.8,2.4v24.2
		c-3.9,1.2-6.1,2.1-6.4,2.2c-1,0.4-1.6,1.3-1.6,2.3v30.1h-17c-1.4,0-2.5,1.1-2.5,2.5v47.2l-1.6,1.4c-0.8,0.7-1.1,1.9-0.6,2.9
		c0.4,0.9,1.3,1.5,2.3,1.5c0.1,0,0.2,0,0.3,0c0.1,0,0.5-0.1,1.2-0.1c0.3,0.1,0.5,0.2,0.8,0.2v33.3c0,1.4,1.1,2.5,2.5,2.5h196.5
		c1.4,0,2.5-1.1,2.5-2.5v-33.4c0.1,0,0.1,0,0.2-0.1c0.3,0,0.7,0.1,1,0.1c1.1,0.1,2.1-0.5,2.6-1.5C221.2,165.5,221,164.3,220.2,163.6
		z M214,117.5v40.7l-14.8-13.1l0-27.6H214z M113.7,162.8v36H55.3v-34.3C71.3,163.6,91.2,162.8,113.7,162.8z M118.7,162.8
		c17.8,0,37.1,0.5,57.4,1.8v34.3h-57.4V162.8z M116.6,157.8c-0.1,0-0.2,0-0.4,0c-0.1,0-0.2,0-0.4,0c-24.5,0-46,0.8-62.9,1.9
		c-0.1,0-0.1,0-0.2,0c-0.2,0-0.4,0-0.5,0.1c-14,0.9-24.9,1.8-31.6,2.5l15.5-13.7c75.5-17.2,151.8-1.6,159.4,0l15.5,13.7
		C177.1,158.9,144.8,157.8,116.6,157.8z M65.1,76.6v61.7c-5,0.6-10,1.4-15,2.2V80.2C54.3,79.1,59.4,77.8,65.1,76.6z M66.1,50.8v20.4
		c0,0,0,0,0,0.1c-3.9,0.8-7.5,1.6-10.8,2.4V53.1C58.7,52.3,62.3,51.5,66.1,50.8z M176.3,52.4v20.7c-3.6-1-7.2-1.8-10.8-2.6V50
		C169,50.7,172.7,51.5,176.3,52.4z M166.6,138.8V75.9c5,1.1,10,2.4,15,3.9v61.1C177.3,140.2,172.3,139.5,166.6,138.8z M89.2,72.7
		v63.5c-6.3,0.4-12.7,0.9-19.1,1.6V75.6C75.9,74.5,82.3,73.5,89.2,72.7z M118.4,65.9V45.6c6.6,0,13.4,0.2,20.3,0.8v20.3
		C131.6,66.1,124.8,65.9,118.4,65.9z M118.4,40.6V15.8c10.3,2.2,16.6,17.9,19.1,25.5C131,40.8,124.6,40.6,118.4,40.6z M113.4,45.7
		v20.2c-7.3,0.2-14.2,0.6-20.5,1.2V46.9C99.4,46.3,106.3,45.8,113.4,45.7z M93.9,41.8c2.4-7.3,8.9-23.7,19.5-26v24.9
		C106.6,40.8,100.1,41.2,93.9,41.8z M94.2,72.1c6.1-0.6,12.5-1,19.1-1.2v63.5v0.2v0.8c-0.2,0-0.5,0-0.7,0c-6,0-12.1,0.1-18.4,0.4
		V72.1z M118.3,134.6v-0.2V70.9c6.2,0,12.6,0.2,19.1,0.7v64.6c-6.1-0.3-12.5-0.6-19.1-0.7V134.6z M142.5,72.1
		c6.3,0.6,12.7,1.6,19.1,2.8v63.3c-5.8-0.6-12.2-1.2-19.1-1.7V72.1z M160.5,69.6c-5.7-1-11.3-1.8-16.8-2.4V46.8
		c5.5,0.5,11.1,1.3,16.8,2.3V69.6z M142.9,41.7c-1.5-4.9-5.3-15.7-11.8-23.3c14.2,5.8,23.3,18.5,27.3,25.2
		C153.1,42.9,148,42.2,142.9,41.7z M88.4,42.3c-5.2,0.6-10.1,1.3-14.8,2c4.1-7.1,13-19.6,26.6-25.6C93.5,26.7,89.7,38.1,88.4,42.3z
		 M87.9,47.4v20.3c-0.9,0.1-1.8,0.2-2.7,0.3c-5,0.6-9.7,1.4-14,2.2V49.9C76.4,48.9,82,48.1,87.9,47.4z M194.2,143.1
		c-1.8-0.4-4.4-0.9-7.6-1.4V81.4c2.5,0.8,5.1,1.7,7.6,2.7L194.2,143.1z M186,76c-1.6-0.5-3.2-1-4.8-1.5c0-0.2,0.1-0.4,0.1-0.6V53.7
		c1.6,0.4,3.2,0.9,4.8,1.3V76z M174.1,46.7c-3.2-0.7-6.3-1.4-9.5-2c-1.3-2.7-5.1-9.5-11.5-16.5c-2.5-2.7-5.2-5.2-7.9-7.3
		C162,28,170.5,40,174.1,46.7z M87.3,20.7c-3.1,2.4-6.1,5.2-8.9,8.4c-5.8,6.6-9.5,13.1-11.1,16.4c-3.5,0.6-6.8,1.3-9.9,2
		C61.1,40.5,69.9,27.8,87.3,20.7z M45.4,55.6c1.6-0.4,3.2-0.9,4.9-1.3v20.3c0,0.1,0,0.2,0,0.4c-1.8,0.5-3.4,0.9-4.9,1.4V55.6z
		 M37.5,84.2c1.5-0.5,4.1-1.4,7.6-2.5v59.8c-2.5,0.5-5.1,1-7.6,1.6V84.2z M18,117.5h14.5v27.6L18,157.8V117.5z M20.5,167.2
		c6.3-0.6,16.5-1.6,29.8-2.4v34H20.5V167.2z M181.1,198.8v-34c10.1,0.7,20.4,1.5,30.9,2.5v31.5H181.1z"/>
</g>
</svg>
