<?xml version="1.0" encoding="utf-8"?>
<!-- Generator: Adobe Illustrator 24.2.0, SVG Export Plug-In . SVG Version: 6.00 Build 0)  -->
<svg version="1.1" id="Layer_1" xmlns="http://www.w3.org/2000/svg" xmlns:xlink="http://www.w3.org/1999/xlink" x="0px" y="0px"
	 viewBox="0 0 238 217" style="enable-background:new 0 0 238 217;" xml:space="preserve">
<style type="text/css">
	.st0{fill-rule:evenodd;clip-rule:evenodd;fill:#99C8CD;}
	.st1{fill:#EFDFEC;}
	.st2{fill:#DABCD1;}
	.st3{fill:#B0BEDD;}
	.st4{fill:none;stroke:#3A5DAB;stroke-width:5;stroke-linecap:round;stroke-linejoin:round;stroke-miterlimit:10;}
	.st5{fill:none;stroke:#852065;stroke-width:5;stroke-linecap:round;stroke-linejoin:round;stroke-miterlimit:10;}
	
		.st6{fill-rule:evenodd;clip-rule:evenodd;fill:none;stroke:#007482;stroke-width:5;stroke-linecap:round;stroke-linejoin:round;stroke-miterlimit:10;}
	
		.st7{fill-rule:evenodd;clip-rule:evenodd;fill:#99C8CD;stroke:#007482;stroke-width:5;stroke-linecap:round;stroke-linejoin:round;stroke-miterlimit:10;}
	.st8{fill:#007482;}
	.st9{fill:#016870;}
	.st10{fill:#3A5DAB;}
	.st11{fill:#852065;}
</style>
<g>
	<g>
		<path class="st3" d="M219.3,23.2h-9l-24,32.6c-1.5,2.1-4,3.3-6.6,3.3h-43.6c-2.5,0-4.6,2.1-4.6,4.6v103c0,2.3-1.3,4.5-3.4,5.5
			l-39.3,20.1v8.2c0,3,3.2,4.9,5.8,3.5l43.2-22.1c2.1-1.1,3.4-3.2,3.4-5.5V68.9h48.2c2.6,0,5.1-1.2,6.6-3.3l26.5-36
			C224.4,26.9,222.6,23.2,219.3,23.2z"/>
	</g>
	<path class="st10" d="M92.9,207.1c-1.2,0-2.3-0.3-3.4-1c-1.9-1.2-3.1-3.3-3.1-5.5V71.4H10.8c-2.4,0-4.6-1.4-5.8-3.5
		s-0.9-4.8,0.6-6.7l26.7-36.4c1.8-2.5,4.8-4,7.9-4h179.1c2.4,0,4.6,1.4,5.8,3.5c1.1,2.2,0.9,4.8-0.6,6.7l-26.5,36
		c-2,2.7-5.2,4.4-8.6,4.4h-45.7v105.1c0,3.3-1.8,6.2-4.7,7.7l-43.2,22.1C94.9,206.8,93.9,207.1,92.9,207.1z M40.3,25.7
		c-1.5,0-3,0.7-3.9,2L9.7,64.1c-0.5,0.6-0.2,1.3-0.1,1.5c0.1,0.2,0.5,0.8,1.3,0.8h78.1c1.4,0,2.5,1.1,2.5,2.5v131.7
		c0,0.8,0.5,1.1,0.7,1.3c0.2,0.1,0.8,0.4,1.5,0.1l43.2-22.1c1.2-0.6,2-1.9,2-3.3V68.9c0-1.4,1.1-2.5,2.5-2.5h48.2
		c1.8,0,3.5-0.9,4.6-2.3l26.5-36c0.5-0.6,0.2-1.3,0.1-1.5s-0.5-0.8-1.3-0.8H40.3z"/>
</g>
</svg>
