<svg xmlns="http://www.w3.org/2000/svg" width="539" height="151.085" viewBox="0 0 539 151.085"><g transform="translate(440.691 -2767.216)"><path d="M-440.691,2963.622h43.259l44.157-75.395-21.318-37.461-66.1,112.855" transform="translate(0 -46.358)" fill="orange" fill-rule="evenodd"/><path d="M-311.12,3025.879h43.258l14.9-25.445-21.318-37.462-36.844,62.907" transform="translate(-71.893 -108.616)" fill="#990f79" fill-rule="evenodd"/><path d="M-292.2,2804.408l21.318,37.462,21.783-37.193-21.319-37.461-21.783,37.192" transform="translate(-82.388)" fill="#ea7412" fill-rule="evenodd"/><path d="M-228.352,2916.614l21.318,37.463,21.783-37.193-21.318-37.46-21.783,37.191" transform="translate(-117.817 -62.258)" fill="#c40049" fill-rule="evenodd"/><path d="M-237.209,2901.049l21.783-37.191-7.106-12.487-21.783,37.192,7.106,12.487" transform="translate(-108.96 -46.694)" fill="#761526" fill-rule="evenodd"/><path d="M-165.981,3026.214h42.948l-35.646-62.639-21.783,37.193,14.481,25.446" transform="translate(-144.389 -108.951)" fill="#761526" fill-rule="evenodd"/><path d="M-74.405,2855.791h9.969l23.8,54.714h-13.6l-4.715-11.592H-80.2l-4.561,11.592H-98.053l23.648-54.714m4.637,15.919-6.646,17h13.37Z" transform="translate(-190.114 -49.146)" fill="#fff"/><path d="M44.294,2855.791H56.351v43.585H78.684V2910.5H44.294v-54.714" transform="translate(-269.096 -49.146)" fill="#fff"/><path d="M108.347,2855.791H122.1l13.524,35.858h.154l13.756-35.858h12.905L139.877,2910.5h-9.66l-21.87-54.714" transform="translate(-304.636 -49.146)" fill="#fff"/><path d="M243.749,2855.791H280.92v11.128H255.806v10.2H279.53v11.128H255.806v11.127h26.507V2910.5H243.749v-54.714" transform="translate(-379.764 -49.146)" fill="#fff"/><path d="M352.07,2855.791h21.174c11.206,0,20.634,3.863,20.634,16.615,0,7.651-4.1,13.6-11.824,14.992l13.911,23.107H381.514l-11.439-21.87h-5.949v21.87H352.07v-54.714m12.056,22.643h7.109c4.4,0,10.124-.155,10.124-6.1,0-5.487-4.946-6.336-9.352-6.336h-7.882Z" transform="translate(-439.866 -49.146)" fill="#fff"/><path d="M464.555,2855.791h16.383l23.262,38.021h.156v-38.021h12.055V2910.5H500.645l-23.879-38.948h-.155V2910.5H464.555v-54.714" transform="translate(-502.279 -49.146)" fill="#fff"/><path d="M628.954,2852.667c17.08,0,29.522,11.206,29.522,28.748s-12.442,28.748-29.522,28.748-29.518-11.206-29.518-28.748,12.442-28.748,29.518-28.748m0,46.367c10.278,0,17-7.419,17-17.619s-6.726-17.62-17-17.62-17,7.419-17,17.62S618.68,2899.034,628.954,2899.034Z" transform="translate(-577.118 -47.413)" fill="#fff"/><path d="M-7.2,3012.605h3.92L13.9,3053.419H9.629l-4.439-10.838H-16.427l-4.611,10.838h-3.977L-7.2,3012.605m1.787,4.15-9.512,22.367H3.807Z" transform="translate(-230.639 -136.155)" fill="#fff"/><path d="M106.431,3045.727c-3.862,5.3-9.166,7.437-15.161,7.437-12.452,0-21.1-8.992-21.1-21.444s8.647-21.445,21.1-21.445c5.534,0,10.492,1.844,14.066,6.4l-3.113,2.595a13.014,13.014,0,0,0-10.953-5.534c-10.664,0-17.293,7.839-17.293,17.985S80.606,3049.7,91.27,3049.7a14.713,14.713,0,0,0,12.048-6.342l3.113,2.364" transform="translate(-283.454 -134.862)" fill="#fff"/><path d="M198.119,3045.727c-3.862,5.3-9.166,7.437-15.161,7.437-12.452,0-21.1-8.992-21.1-21.444s8.647-21.445,21.1-21.445c5.534,0,10.492,1.844,14.066,6.4l-3.113,2.595a13.013,13.013,0,0,0-10.953-5.534c-10.664,0-17.293,7.839-17.293,17.985s6.629,17.985,17.293,17.985a14.712,14.712,0,0,0,12.048-6.342l3.113,2.364" transform="translate(-334.327 -134.862)" fill="#fff"/><path d="M259.509,3012.605h24.96v3.459H263.314v14.527h19.83v3.459h-19.83v15.909h22.078v3.459H259.509v-40.813" transform="translate(-388.508 -136.155)" fill="#fff"/><path d="M336.82,3012.605h3.8v37.354h19.024v3.459H336.82v-40.813" transform="translate(-431.405 -136.155)" fill="#fff"/><path d="M402.093,3012.605h24.96v3.459H405.9v14.527h19.83v3.459H405.9v15.909h22.079v3.459H402.093v-40.813" transform="translate(-467.622 -136.155)" fill="#fff"/><path d="M479.4,3012.605h10.722c3.228,0,14.527,0,14.527,10.722,0,7.782-5.938,9.914-10.435,10.49l11.876,19.6h-4.323L490.3,3034.05h-7.091v19.369h-3.8v-40.813m3.8,17.985h8.071c8.012,0,9.569-4.438,9.569-7.263s-1.557-7.263-9.569-7.263h-8.071Z" transform="translate(-510.518 -136.155)" fill="#fff"/><path d="M562.616,3012.605h3.922l17.178,40.813h-4.265l-4.443-10.838H553.392l-4.612,10.838H544.8l17.811-40.813m1.789,4.15-9.513,22.367h18.736Z" transform="translate(-546.806 -136.155)" fill="#fff"/><path d="M640.087,3016.064H626.136v-3.459h31.7v3.459H643.893v37.354h-3.806v-37.354" transform="translate(-591.933 -136.155)" fill="#fff"/><path d="M712,3012.605h24.959v3.459H715.8v14.527h19.827v3.459H715.8v15.909h22.079v3.459H712v-40.813" transform="translate(-639.572 -136.155)" fill="#fff"/></g></svg>