<svg xmlns="http://www.w3.org/2000/svg" width="809.313" height="371.426" viewBox="0 0 809.313 371.426"><path d="M-2063.263,83.939c-71.34,67.931-182.262,78.529-273.151,49.824-85.09-26.875-172.9-104.261-158.878-201.905a111.4,111.4,0,0,1,12.133-37.619c12.852-23.52,39.336-40.737,66.423-40.853,30.1-.128,58.993,27.575,54.4,58.987-2.283,15.625-14.134,28.6-28.119,35.933-19.713,10.336-46.762,14.81-68.375,8.481-30.99-9.07-53.012-29.433-75.145-51.675-39.594-39.794-78.617-81.388-130.323-105.21-48.689-22.432-103.193-27.1-154.432-10.54-20.489,6.619-35.947,16.3-52.538,29.514" transform="translate(2871.886 221.553)" fill="none" stroke="#fff" stroke-miterlimit="10" stroke-width="2"/></svg>